<svg alt="" xmlns="http://www.w3.org/2000/svg" viewBox="0 0 100 100">
  <path d="M49.5 53.8c.1.1.3.2.5.2s.4-.1.5-.2l11.3-11.4c5.4-5.4 5.8-11 2.3-14.5l-.1-.1c-3.4-3.4-9-3.4-12.4.1-.6.6-1.2 1.3-1.6 2.1-.4-.8-1-1.5-1.6-2.1-3.4-3.4-9.1-3.4-12.5 0-3.4 3.4-3.1 9.1 2.3 14.5l11.3 11.4zM73.9 62.8c-.7-1.8-2.8-2.6-4.6-1.9L53 67.7c0 .1 0 .2-.1.3-.4 1.3-1.3 2.3-2.4 2.9-.7.4-1.5.6-2.3.6-.5 0-1-.1-1.5-.2l-.9-.3-7.8-2.5h-.1c-.3-.1-.4-.4-.4-.7 0-.4.3-.8.8-.8.1 0 .2 0 .3.1h.1l8.5 2.8c.2.1.3.1.5.1s.4.1.6.1h.4c1-.1 1.8-.6 2.4-1.4.2-.3.4-.6.5-.9.6-1.8-.4-3.8-2.2-4.4l-17.1-5.6h-.2c-.2 0-.3-.1-.5-.1h-.7c-.1 0-.2 0-.3.1-.1 0-.2 0-.3.1-.2 0-.3.1-.5.2 0 0-.1 0-.1.1l-3.2 1.6-6.2 3.1c-1.7.9-2.4 3-1.5 4.7l2.8 5.6c.6 1.2 1.8 1.9 3.1 1.9.5 0 1.1-.1 1.6-.4l5.2-2.6 15.8 5.1c.1 0 .2.1.4.1h.7c.2 0 .4 0 .6-.1h.2c.1 0 .3-.1.4-.1h.1L72 67.3c1.8-.7 2.6-2.7 1.9-4.5z"/>
</svg>
