<svg xmlns="http://www.w3.org/2000/svg" viewBox="0 0 89 100">
  <path class="i-token__base" fill="#FDD12B" d="M44.5 98.2c-.8 0-1.6-.2-2.2-.6L4.4 75.7c-1.4-.8-2.2-2.3-2.2-3.9V28.1c0-1.6.9-3.1 2.2-3.9L42.3 2.4c.7-.4 1.5-.6 2.2-.6.8 0 1.6.2 2.2.6l37.8 21.9c1.4.8 2.2 2.3 2.2 3.9v43.7c0 1.6-.9 3.1-2.2 3.9L46.7 97.6c-.6.4-1.4.6-2.2.6z"/>
  <path class="i-token__shine" fill="#D38D00" d="M23 39.1v21.7c0 1 .5 1.9 1.3 2.3L43.1 74c.8.5 1.9.5 2.7 0l18.8-10.9c.8-.5 1.3-1.4 1.3-2.3V39.1c0-1-.5-1.9-1.3-2.3L45.8 25.9c-.8-.5-1.9-.5-2.7 0L24.3 36.8c-.8.5-1.3 1.4-1.3 2.3z"/>
  <path class="i-token__fill" fill="#A86700" d="M27.2 64.6L42 73.2c1 .6 2.2.6 3.2 0l18.5-10.7c1-.6 1.6-1.6 1.6-2.8V38.5c0-1.1-.6-2.2-1.6-2.8l-5.1-3C57.3 49.6 44 63 27.2 64.6z"/>
  <path class="i-token__inset" fill="#FFF7C0" d="M65.5 35.4L46.7 24.5c-1.3-.8-3-.8-4.4 0L23.5 35.4c-1.3.8-2.2 2.2-2.2 3.8v21.7c0 1.5.8 3 2.2 3.8l18.8 10.9c.7.4 1.4.6 2.2.6.8 0 1.5-.2 2.2-.6l18.8-10.9c1.3-.8 2.2-2.2 2.2-3.8V39.1c0-1.5-.9-3-2.2-3.7zm-1.2 25.5c0 .4-.2.7-.5.9L45 72.6c-.3.2-.7.2-1 0l-14.1-8.2c2-15 13.5-26.9 28.2-29.5l5.7 3.3c.3.2.5.5.5.9v21.8z"/>
  <path class="i-token__right" fill="#D38D00" d="M44.5 97l39.2-22.8c.8-.5 1.3-1.4 1.3-2.3V27.7c0-.5-.6-.8-1-.6l-39.5 23V97z" opacity=".6"/>
  <path class="i-token__left" fill="#FFF7A9" d="M44.5 97L5.3 74.2c-.8-.5-1.3-1.4-1.3-2.3V27.7c0-.5.6-.8 1-.6L44.5 50v47z" opacity=".6"/>
  <path class="i-token__stars" fill="#FFF" d="M78.2 65h-2v-2c0-.7-.5-1.2-1.2-1.2s-1.2.5-1.2 1.2v2h-2c-.7 0-1.2.5-1.2 1.2s.5 1.2 1.2 1.2h2v2c0 .7.5 1.2 1.2 1.2s1.2-.5 1.2-1.2v-2h2c.7 0 1.2-.5 1.2-1.2 0-.6-.6-1.2-1.2-1.2zM18 32.3h-1.7v-1.7c0-.6-.5-1-1-1-.6 0-1 .5-1 1v1.7h-1.7c-.6 0-1 .5-1 1 0 .6.5 1 1 1h1.7V36c0 .6.5 1 1 1 .6 0 1-.5 1-1v-1.7H18c.6 0 1-.5 1-1s-.5-.9-1-1z"/>
  <path class="i-token__border" fill="#B27700" d="M44.5 3.6c.5 0 .9.1 1.3.4l37.8 21.8c.8.5 1.3 1.4 1.3 2.3v43.7c0 1-.5 1.9-1.3 2.3L45.8 96c-.4.2-.9.4-1.3.4-.5 0-.9-.1-1.3-.4L5.3 74.2c-.8-.5-1.3-1.4-1.3-2.4V28.1c0-1 .5-1.9 1.3-2.3L43.2 4c.4-.3.8-.4 1.3-.4m0-3.6c-1.1 0-2.2.3-3.1.8L3.5 22.7C1.6 23.8.4 25.9.4 28.1v43.7c0 2.2 1.2 4.3 3.1 5.4l37.8 21.9c1 .6 2 .8 3.1.8s2.2-.3 3.1-.8l37.8-21.9c1.9-1.1 3.1-3.2 3.1-5.4V28.1c0-2.2-1.2-4.3-3.1-5.4L47.6.8c-.9-.5-2-.8-3.1-.8z"/>
</svg>
