<svg alt="" class="chat-bubbles" xmlns="http://www.w3.org/2000/svg" viewBox="0 0 32 29">
  <path class="chat-bubbles__back-fill" d="M8 15.4c0 4.8 3.9 8.7 8.7 8.7h1.1c1 1.5 3.4 4.9 5.8 4.9h1.2c.1 0 .2-.1.2-.2v-4.9c4-.8 7-4.3 7-8.5 0-4.8-3.9-8.7-8.7-8.7h-6.7c-4.7 0-8.6 3.9-8.6 8.7z" />
  <path class="chat-bubbles__back-line" d="M8 15.4c0 4.8 3.9 8.7 8.7 8.7h1.1c1 1.5 3.4 4.9 5.8 4.9h1.2c.1 0 .2-.1.2-.2v-4.9c4-.8 7-4.3 7-8.5 0-4.8-3.9-8.7-8.7-8.7h-6.7c-4.7 0-8.6 3.9-8.6 8.7zm1 .1v-.1C9 10.9 12.3 8 16.7 8h5.7c4.5 0 7.6 2.9 7.6 7.4v.1c0 3.9-2.2 6.6-5.9 7.3-.2 0-.3.1-.5.1v4.9s0 .1-.1.1h-.1c-1.7 0-4-2.9-5-4.4-.1-.2-.3-.4-.4-.5h-1.6c-4.2-.1-7.4-3.1-7.4-7.5z" />
  <path class="chat-bubbles__front-fill" d="M15.3 0H8.7C3.9 0 0 3.9 0 8.7c0 4.2 3 7.7 7 8.5V22c0 .1.1.2.2.2h1.2c2.4 0 4.9-3.4 5.8-4.9h1.1c4.8 0 8.7-3.9 8.7-8.7C24 3.9 20.1 0 15.3 0z" />
  <path class="chat-bubbles__front-line" d="M15.3 0H8.7C3.9 0 0 3.9 0 8.7c0 4.2 3 7.7 7 8.5V22c0 .1.1.2.2.2h1.2c2.4 0 4.9-3.4 5.8-4.9h1.1c4.8 0 8.7-3.9 8.7-8.7C24 3.9 20.1 0 15.3 0zm-.8 15.8H13c-.1.1-.2.3-.4.5-1 1.4-2.8 4.4-4.5 4.4 0 0-.1 0-.1-.1v-4.9c-.2 0-.3 0-.5-.1-3.6-.7-6.5-3-6.5-6.9v-.1C1 4.1 4.2 1 8.7 1h5.7C18.8 1 22 4.1 22 8.6v.1c0 4.4-3.1 7-7.5 7.1z" />
</svg>
