<svg alt="" className="ap-meta-ico" xmlns="http://www.w3.org/2000/svg" viewBox="0 0 128 100">
  <path className="ap-meta-ico__base" fill="#FDD12B" d="M64 98.3c-.8 0-1.5-.2-2.2-.6L23.9 75.8c-1.4-.8-2.2-2.3-2.2-3.9V28.2c0-1.6.9-3.1 2.2-3.9L61.8 2.5c.7-.4 1.4-.6 2.2-.6.8 0 1.5.2 2.2.6L104 24.4c1.4.8 2.2 2.3 2.2 3.9V72c0 1.6-.9 3.1-2.2 3.9L66.2 97.7c-.7.4-1.4.6-2.2.6z" />
  <path className="ap-meta-ico__shine" fill="#D38D00" d="M42.5 39.1v21.7c0 1 .5 1.8 1.3 2.3L62.6 74c.8.5 1.9.5 2.7 0l18.8-10.9c.8-.5 1.3-1.4 1.3-2.3V39.1c0-1-.5-1.8-1.3-2.3L65.3 25.9c-.8-.5-1.9-.5-2.7 0L43.8 36.8c-.8.5-1.3 1.4-1.3 2.3z" />
  <path className="ap-meta-ico__fill" fill="#A86700" d="M46.7 64.7l14.8 8.6c1 .6 2.2.6 3.2 0l18.5-10.7c1-.6 1.6-1.6 1.6-2.8V38.6c0-1.1-.6-2.2-1.6-2.8l-5.1-3c-1.3 16.8-14.6 30.3-31.4 31.9z" />
  <path className="ap-meta-ico__inset" fill="#FFF7C0" d="M85 35.4L66.2 24.5c-1.4-.8-3-.8-4.4 0L43 35.4c-1.3.8-2.2 2.2-2.2 3.8v21.7c0 1.6.8 3 2.2 3.8l18.8 10.9c1.4.8 3 .8 4.4 0L85 64.7c1.3-.8 2.2-2.2 2.2-3.8V39.1c0-1.5-.8-2.9-2.2-3.7zM83.8 61c0 .4-.2.7-.5.9L64.5 72.7c-.3.2-.7.2-1 0l-14.1-8.2c2-14.9 13.4-26.9 28.2-29.5l5.7 3.3c.3.2.5.5.5.9V61z" />
  <path className="ap-meta-ico__right" fill="#D38D00" d="M64 97.1l39.2-22.8c.8-.5 1.3-1.4 1.3-2.3V27.8c0-.4-.4-.7-.8-.7-.1 0-.2 0-.2.1L64 50.2v46.9z" opacity=".6" />
  <path className="ap-meta-ico__left" fill="#FFF7A9" d="M64 97.1L24.8 74.3c-.8-.5-1.3-1.4-1.3-2.3V27.8c0-.4.4-.7.8-.7.1 0 .2 0 .2.1L64 50.1v47z" opacity=".6" />
  <path className="ap-meta-ico__stars" fill="#FFF" d="M97.7 65.1h-2v-2c0-.7-.5-1.2-1.2-1.2s-1.2.5-1.2 1.2v2h-2c-.7 0-1.2.5-1.2 1.2s.5 1.2 1.2 1.2h2v2c0 .7.5 1.2 1.2 1.2s1.2-.5 1.2-1.2v-2h2c.6 0 1.2-.5 1.2-1.1v-.1c0-.7-.5-1.2-1.2-1.2zM37.5 32.3h-1.7v-1.7c0-.6-.4-1-1-1s-1 .4-1 1v1.7h-1.7c-.6 0-1 .4-1 1s.4 1 1 1h1.7V36c0 .6.4 1 1 1s1-.4 1-1v-1.7h1.7c.6 0 1-.4 1-1-.1-.5-.5-.9-1-1z" />
  <path className="ap-meta-ico__border" fill="#B27700" d="M64 3.6c.5 0 .9.1 1.3.4l37.8 21.8c.8.5 1.3 1.4 1.3 2.3v43.7c0 1-.5 1.8-1.3 2.3L65.3 96c-.4.2-.8.4-1.3.4s-.9-.1-1.3-.4L24.8 74.2c-.8-.5-1.3-1.4-1.3-2.4V28.1c0-1 .5-1.8 1.3-2.3L62.7 4c.4-.3.8-.4 1.3-.4M64 0c-1.1 0-2.2.3-3.1.8L23 22.7c-1.9 1.1-3.1 3.2-3.1 5.4v43.7c0 2.2 1.2 4.3 3.1 5.4l37.8 21.9c.9.6 2 .8 3.1.8s2.2-.3 3.1-.8l37.9-21.9c1.9-1.1 3.1-3.2 3.1-5.4V28.1c0-2.2-1.2-4.3-3.1-5.4L67.1.8c-1-.5-2-.8-3.1-.8z" />
  <g className="ap-meta-ico__star">
    <path fill="#FF3534" d="M30.9 32l2.2 11.9c0 .3-.1.6-.3.8l-.4.1c-.2 0-.3 0-.4-.1L21.7 38l-10.3 6.7c-.3.2-.6.2-.8 0-.2-.2-.4-.5-.3-.8L12.4 32l-8.9-8.9c-.2-.2-.3-.6-.2-.8.1-.3.4-.5.7-.5h11.8l5.1-13.3c.1-.4.6-.6 1-.5.2.1.4.3.5.5l5.1 13.3h11.7c.3 0 .6.2.7.5.1.3 0 .6-.2.8L30.9 32z" />
    <path fill="#7F0004" d="M21.7 7.9h.2c.2.1.4.3.5.5l5.1 13.3h11.7c.3 0 .6.2.7.5.1.3 0 .6-.2.8l-8.8 9 2.2 11.9c0 .3-.1.6-.3.8l-.4.1c-.2 0-.3 0-.4-.1L21.7 38l-10.3 6.7c-.1.1-.3.1-.4.1-.1 0-.3 0-.4-.1-.2-.2-.4-.5-.3-.8L12.4 32l-8.9-8.9c-.2-.2-.3-.6-.2-.8.1-.3.4-.5.7-.5h11.8l5.1-13.3c.1-.4.4-.6.8-.6m0-3.2c-1.7 0-3.2 1.1-3.8 2.7l-4.3 11.1H4c-1.6 0-3.1 1-3.7 2.4l-.1.2-.1.2c-.4 1.4-.1 2.9.9 4l7.8 7.8L7 43.2c-.2 1.7.4 3.2 1.7 4 .7.5 1.5.7 2.3.7.8 0 1.6-.3 2.3-.7l8.4-5.4 8.5 5.5.2.1.2.1c.6.3 1.2.4 1.8.4h.4l.4-.1.4-.1.6-.1.5-.4c1.2-.9 1.9-2.4 1.7-3.9L34.5 33l7.7-7.7.1-.1.1-.1c1-1.1 1.3-2.6.9-4l-.2-.1-.1-.2c-.7-1.4-2-2.3-3.5-2.3h-9.6L25.5 7.4c-.4-1.2-1.4-2.1-2.6-2.5-.4-.2-.8-.2-1.2-.2z" />
  </g>
  <g className="ap-meta-ico__square">
    <path fill="#FF3434" d="M21.7 90.5c-.3 0-.5-.1-.7-.2L8.3 83c-.5-.3-.7-.8-.7-1.3V67.2c0-.5.3-1 .7-1.3L21 58.6c.2-.1.5-.2.7-.2.3 0 .5.1.7.2L35 65.9c.5.3.7.8.7 1.3v14.6c0 .5-.3 1-.7 1.3l-12.6 7.3c-.2.1-.5.1-.7.1z" />
    <path fill="#C70A05" d="M21.7 90.1l13.1-7.6c.3-.2.4-.5.4-.8V67c0-.1-.1-.2-.3-.2h-.1l-13.2 7.7v15.6z" opacity=".6" />
    <path fill="#F5AEA0" d="M21.7 90.1L8.6 82.5c-.3-.2-.4-.5-.4-.8V67c0-.1.1-.2.3-.2h.1l13.2 7.6v15.7z" opacity=".6" />
    <path fill="#7F0104" d="M37 64.2L22.9 56c-.4-.2-.8-.3-1.2-.3-.4 0-.8.1-1.2.3L6.3 64.2c-.7.4-1.2 1.2-1.2 2v16.4c0 .8.4 1.6 1.2 2l14.2 8.2c.4.2.8.3 1.2.3.4 0 .8-.1 1.2-.3L37 84.7c.7-.4 1.2-1.2 1.2-2V66.2c0-.8-.4-1.6-1.2-2zM21.7 59c.2 0 .3 0 .4.1l12.6 7.3c.3.2.4.5.4.8v14.6c0 .3-.2.6-.4.8l-12.6 7.3c-.1.1-.3.1-.4.1-.2 0-.3 0-.4-.1L8.6 82.5c-.3-.2-.4-.5-.4-.8V67.2c0-.3.2-.6.4-.8l12.6-7.3c.2-.1.3-.1.5-.1z" />
  </g>
</svg>
